<svg xmlns="http://www.w3.org/2000/svg" width="36.219" height="29.781" viewBox="0 0 36.219 29.781">
  <metadata><?xpacket begin="﻿" id="W5M0MpCehiHzreSzNTczkc9d"?>
<x:xmpmeta xmlns:x="adobe:ns:meta/" x:xmptk="Adobe XMP Core 5.6-c138 79.159824, 2016/09/14-01:09:01        ">
   <rdf:RDF xmlns:rdf="http://www.w3.org/1999/02/22-rdf-syntax-ns#">
      <rdf:Description rdf:about=""/>
   </rdf:RDF>
</x:xmpmeta>
                                                                                                    
                                                                                                    
                                                                                                    
                                                                                                    
                                                                                                    
                                                                                                    
                                                                                                    
                                                                                                    
                                                                                                    
                                                                                                    
                                                                                                    
                                                                                                    
                                                                                                    
                                                                                                    
                                                                                                    
                                                                                                    
                                                                                                    
                                                                                                    
                                                                                                    
                                                                                                    
                           
<?xpacket end="w"?></metadata>
<defs>
    <style>
      .cls-1 {
        fill: #07a550;
        fill-rule: evenodd;
      }
    </style>
  </defs>
  <path id="Ellipse_1_copy" data-name="Ellipse 1 copy" class="cls-1" d="M60.384,15.969A13.957,13.957,0,1,1,46.56,29.924,13.89,13.89,0,0,1,60.384,15.969ZM38.323,27.848S48.593,38.089,51.265,40.319s-0.5-4.807-4.706-7.72-5.216-3.321-7.059-4.751C37.117,26,38.323,27.848,38.323,27.848Zm14.118-8.909s-8.611-2.013-10-2.375-4.619-1.521-1.176-1.188,15.883,2.376,15.883,2.376ZM49.5,14.783s5.265,1.768,6.471,2.376,2.353,1.187,2.353,1.187l5.883-1.781c0.047,0.025-5.573-1.333-9.1-1.913-3.261-.537-4.772-0.667-6.2-0.462S49.5,14.783,49.5,14.783Zm1.177,14.847s-5.661-3.247-7.059-4.158-1.733-.45-0.589.594,8.236,7.127,8.236,7.127Zm-11.765-7.72s7.531,5.594,12.354,8.314,10.589,0.706,10.589-6.533S54.206,13,54.206,13s6.471,5.005,6.471,10.1-3.692,6.533-6.471,6.533c-1.071,0-3.857-2.133-7.845-4.338A42.888,42.888,0,0,0,38.911,21.909Zm37.061,6.533s-4.839-1.781-7.647-1.781-6.471,3.268-6.471,6.532,2.854,7.72,5.883,7.72a16.879,16.879,0,0,0,6.471-1.781,25.663,25.663,0,0,0-5.294-.593c-2.808,0-4.118-2.231-4.118-5.346s2.9-4.442,6.471-4.751a10.671,10.671,0,0,1,6.471,1.781Z" transform="translate(-38 -14.094)"/>
</svg>
